<?xml version="1.0" standalone="no"?>
<!DOCTYPE svg PUBLIC "-//W3C//DTD SVG 20010904//EN"
 "http://www.w3.org/TR/2001/REC-SVG-20010904/DTD/svg10.dtd">
<svg version="1.0" xmlns="http://www.w3.org/2000/svg"
 width="260.000000pt" height="260.000000pt" viewBox="0 0 260.000000 260.000000"
 preserveAspectRatio="xMidYMid meet">
<metadata>
Created by potrace 1.11, written by Peter Selinger 2001-2013
</metadata>
<g transform="translate(0.000000,260.000000) scale(0.100000,-0.100000)"
fill="#000000" stroke="none">
<path d="M253 2586 c-102 -33 -176 -97 -222 -196 l-26 -55 0 -1035 0 -1035 26
-56 c37 -79 90 -133 167 -171 l67 -33 1035 0 1035 0 67 33 c77 38 130 92 167
171 l26 56 0 1035 0 1035 -33 67 c-38 77 -92 130 -171 167 l-56 26 -1020 2
c-825 2 -1028 -1 -1062 -11z m1435 -1173 c-4 -462 -4 -461 -71 -549 -76 -100
-197 -147 -362 -140 -107 5 -183 25 -264 73 -49 28 -131 100 -131 114 0 7 136
206 156 228 2 2 22 -13 45 -33 90 -77 201 -105 245 -62 18 18 19 36 19 259 l0
240 -182 0 c-125 0 -183 4 -184 11 -4 35 -4 253 -1 264 3 9 86 12 369 12 l364
0 -3 -417z"/>
</g>
</svg>
