<svg height="596" viewBox="0 0 1140 596" width="1140" xmlns="http://www.w3.org/2000/svg" xmlns:xlink="http://www.w3.org/1999/xlink"><defs><path id="a" d="m0 0h1140v596h-1140z"/><circle id="b" cx="60" cy="60" r="60"/><mask id="c" fill="#fff"><use fill="#fff" fill-rule="evenodd" xlink:href="#a"/></mask><mask id="d" fill="#fff"><use fill="#fff" fill-rule="evenodd" xlink:href="#b"/></mask></defs><g fill="none" fill-rule="evenodd"><use fill="#f0f7ff" opacity=".7" xlink:href="#a"/><g stroke="#c0cafb" stroke-width="3"><path d="m570 238v-93" mask="url(#c)"/><path d="m570 450v-93" mask="url(#c)"/><path d="m417 360 105-43" mask="url(#c)"/><path d="m417 278 105-43" mask="url(#c)" transform="matrix(1 0 0 -1 0 513)"/><path d="m617 360 105-43" mask="url(#c)" transform="matrix(-1 0 0 1 1339 0)"/><path d="m617 278 105-43" mask="url(#c)" transform="matrix(-1 0 0 -1 1339 513)"/></g><g mask="url(#c)"><g fill-rule="evenodd" transform="translate(510 238)"><use fill="#90a0f1" xlink:href="#b"/><g fill="#e1e6ff"><rect height="44" mask="url(#d)" rx="22" width="44" x="38" y="30"/><rect height="84" mask="url(#d)" rx="42" width="84" x="18" y="79"/></g></g></g><g mask="url(#c)"><g transform="translate(500 66)"><path d="m0 0h140v80h-140z" fill="#e1e6ff" fill-rule="evenodd"/><text fill="none" font-family="Montserrat-Bold, Montserrat" font-size="12" font-weight="bold"><tspan fill="#4a4a4a" x="26.884" y="45">Great Content</tspan></text></g></g><g mask="url(#c)"><g transform="translate(500 450)"><path d="m0 0h140v80h-140z" fill="#e1e6ff" fill-rule="evenodd"/><text fill="none" font-family="Montserrat-Bold, Montserrat" font-size="12" font-weight="bold"><tspan fill="#4a4a4a" x="36.88" y="45">Motivation</tspan></text></g></g><g mask="url(#c)"><g transform="translate(280 322)"><path d="m0 0h140v80h-140z" fill="#e1e6ff" fill-rule="evenodd"/><text fill="none" font-family="Montserrat-Bold, Montserrat" font-size="12" font-weight="bold"><tspan fill="#4a4a4a" x="33.61" y="45">Community</tspan></text></g></g><g mask="url(#c)"><g transform="translate(280 194)"><path d="m0 0h140v80h-140z" fill="#e1e6ff" fill-rule="evenodd"/><text fill="none" font-family="Montserrat-Bold, Montserrat" font-size="12" font-weight="bold"><tspan fill="#4a4a4a" x="35.056" y="45">Confidence</tspan></text></g></g><g mask="url(#c)"><g transform="translate(720 194)"><path d="m0 0h140v80h-140z" fill="#e1e6ff" fill-rule="evenodd"/><text fill="none" font-family="Montserrat-Bold, Montserrat" font-size="12" font-weight="bold"><tspan fill="#4a4a4a" x="24.724" y="45">Technical Help</tspan></text></g></g><g mask="url(#c)"><g transform="translate(720 322)"><path d="m0 0h140v80h-140z" fill="#e1e6ff" fill-rule="evenodd"/><text fill="none" font-family="Montserrat-Bold, Montserrat" font-size="12" font-weight="bold"><tspan fill="#4a4a4a" x="24.73" y="45">Accountability</tspan></text></g></g></g></svg>