<svg xmlns="http://www.w3.org/2000/svg" xmlns:xlink="http://www.w3.org/1999/xlink" width="1440" height="744" viewBox="0 0 1440 744">
  <defs>
    <rect id="cover-knowledge-a" width="1440" height="744"/>
    <circle id="cover-knowledge-c" cx="73" cy="73" r="73"/>
    <circle id="cover-knowledge-e" cx="73" cy="73" r="73"/>
    <path id="cover-knowledge-g" d="M36,0 L36,0 C55.882251,-3.65231026e-15 72,16.117749 72,36 L72,91 L0,91 L0,36 C-2.4348735e-15,16.117749 16.117749,3.65231026e-15 36,0 Z"/>
    <circle id="cover-knowledge-i" cx="73" cy="73" r="73"/>
    <path id="cover-knowledge-k" d="M44,0 L44,0 C68.300529,-4.46393476e-15 88,19.699471 88,44 L88,104 L0,104 L0,44 C-2.9759565e-15,19.699471 19.699471,4.46393476e-15 44,0 Z"/>
    <path id="cover-knowledge-m" d="M50.2870386,14.9463926 L0,52 L0,48 C-2.4348735e-15,28.117749 16.117749,12 36,12 C41.0762744,12 45.9071533,13.0506631 50.2870382,14.9463908 Z"/>
    <circle id="cover-knowledge-n" cx="73" cy="73" r="73"/>
    <path id="cover-knowledge-p" d="M36,0 L36,0 C55.882251,-3.65231026e-15 72,16.117749 72,36 L72,91 L0,91 L0,36 C-2.4348735e-15,16.117749 16.117749,3.65231026e-15 36,0 Z"/>
  </defs>
  <g fill="none" fill-rule="evenodd">
    <mask id="cover-knowledge-b" fill="#fff">
      <use xlink:href="#cover-knowledge-a"/>
    </mask>
    <use fill="#232962" xlink:href="#cover-knowledge-a"/>
    <g mask="url(#cover-knowledge-b)">
      <g transform="translate(571 93)">
        <path fill="#3F4896" fill-rule="nonzero" d="M149.5,252 C206.109187,252 252,206.109187 252,149.5 C252,92.8908131 206.109187,47 149.5,47 C92.8908131,47 47,92.8908131 47,149.5 C47,206.109187 92.8908131,252 149.5,252 Z M149.5,255 C91.2339589,255 44,207.766041 44,149.5 C44,91.2339589 91.2339589,44 149.5,44 C207.766041,44 255,91.2339589 255,149.5 C255,207.766041 207.766041,255 149.5,255 Z M149,273 C217.483309,273 273,217.483309 273,149 C273,80.516691 217.483309,25 149,25 C80.516691,25 25,80.516691 25,149 C25,217.483309 80.516691,273 149,273 Z M149,276 C78.8598368,276 22,219.140163 22,149 C22,78.8598368 78.8598368,22 149,22 C219.140163,22 276,78.8598368 276,149 C276,219.140163 219.140163,276 149,276 Z M149,295 C229.633573,295 295,229.633573 295,149 C295,68.3664265 229.633573,3 149,3 C68.3664265,3 3,68.3664265 3,149 C3,229.633573 68.3664265,295 149,295 Z M149,298 C66.7095723,298 0,231.290428 0,149 C0,66.7095723 66.7095723,0 149,0 C231.290428,0 298,66.7095723 298,149 C298,231.290428 231.290428,298 149,298 Z"/>
        <g transform="translate(63 63)">
          <circle cx="86" cy="86" r="86" fill="#FF8A8A"/>
          <path fill="#FFF" fill-rule="nonzero" d="M78.9739537,21.3754908 L79.4015656,25.3525687 C74.878052,25.8389328 70.4567099,26.8247013 66.1993626,28.284947 L64.901601,24.5013224 C69.4401211,22.9446361 74.1532771,21.8938057 78.9739537,21.3754908 Z M48.8314792,32.6688083 L51.1213638,35.9485078 C38.5957506,44.6938846 29.7209651,57.8481202 26.4245251,72.8319499 L22.5179471,71.9725035 C26.0316693,56.0010263 35.4874947,41.9855716 48.8314792,32.6688083 Z"/>
          <path fill="#717CDC" d="M58,168 L114,168 L114,186 C114,201.463973 101.463973,214 86,214 L86,214 C70.536027,214 58,201.463973 58,186 L58,168 Z"/>
          <path fill="#232962" fill-rule="nonzero" d="M75.5,167.5 L75.5,113.5 L73,113.5 C67.7532949,113.5 63.5,109.246705 63.5,104 L63.5,102 C63.5,97.8578644 66.8578644,94.5 71,94.5 C75.1421356,94.5 78.5,97.8578644 78.5,102 L78.5,110.5 L92.5,110.5 L92.5,102 C92.5,97.8578644 95.8578644,94.5 100,94.5 C104.142136,94.5 107.5,97.8578644 107.5,102 L107.5,104 C107.5,109.246705 103.246705,113.5 98,113.5 L95.5,113.5 L95.5,167.5 L115,167.5 L115,170.5 L57,170.5 L57,167.5 L75.5,167.5 Z M78.5,167.5 L92.5,167.5 L92.5,113.5 L78.5,113.5 L78.5,167.5 Z M57,180.5 L57,177.5 L115,177.5 L115,180.5 L57,180.5 Z M57,190.5 L57,187.5 L115,187.5 L115,190.5 L57,190.5 Z M98,110.5 C101.589851,110.5 104.5,107.589851 104.5,104 L104.5,102 C104.5,99.5147186 102.485281,97.5 100,97.5 C97.5147186,97.5 95.5,99.5147186 95.5,102 L95.5,110.5 L98,110.5 Z M75.5,102 C75.5,99.5147186 73.4852814,97.5 71,97.5 C68.5147186,97.5 66.5,99.5147186 66.5,102 L66.5,104 C66.5,107.589851 69.4101491,110.5 73,110.5 L75.5,110.5 L75.5,102 Z"/>
        </g>
      </g>
    </g>
    <g fill="#717CDC" mask="url(#cover-knowledge-b)">
      <g transform="translate(241 361)">
        <path fill-rule="nonzero" d="M481,237.12132 L481,385.132813 L478,385.132813 L478,167.454654 L373.666667,271.787987 L373.666667,386 L370.666667,386 L370.666667,270.545346 L478,163.212013 L478,91.4546537 L358.954654,210.5 L193.62132,210.5 L1.06066017,403.06066 L-1.06066017,400.93934 L192.37868,207.5 L357.712013,207.5 L478,87.212013 L478,-1.42108547e-13 L481,-1.42108547e-13 L481,106.545346 L622.787987,248.333333 L866.62132,248.333333 L1008.64399,390.356006 L1006.52267,392.477327 L865.37868,251.333333 L621.545346,251.333333 L481,110.787987 L481,233 L481.06066,232.93934 L680.06066,431.93934 L677.93934,434.06066 L481,237.12132 Z M358.333333,207.5 L357.712013,207.5 L357.272673,207.93934 L358.333333,207.5 Z"/>
        <circle cx="737" cy="250" r="12"/>
        <circle cx="309" cy="208" r="12"/>
        <circle cx="480" cy="301" r="12"/>
      </g>
    </g>
    <g mask="url(#cover-knowledge-b)">
      <g transform="translate(413 349)">
        <mask id="cover-knowledge-d" fill="#fff">
          <use xlink:href="#cover-knowledge-c"/>
        </mask>
        <use fill="#424A9A" xlink:href="#cover-knowledge-c"/>
        <rect width="122" height="28" x="11" y="119" fill="#10143A" mask="url(#cover-knowledge-d)"/>
        <path fill="#FF8A8A" d="M73,28 L73,28 C92.882251,28 109,44.117749 109,64 L109,119 L37,119 L37,64 C37,44.117749 53.117749,28 73,28 Z"/>
        <polygon fill="#232962" fill-rule="nonzero" points="91.5 74.5 98 74.5 98 77.5 88.5 77.5 88.5 60 91.5 60" transform="matrix(-1 0 0 1 186.5 0)"/>
        <path fill="#10143A" d="M37,84 L47,84 L47,48.453125 L87.4436508,48.453125 C97.4042139,48.453125 106.956818,44.4963067 114,37.453125 L117.608524,33.8446006 C122.341207,29.1119182 125,22.6930235 125,16 L67,16 C50.4314575,16 37,29.4314575 37,46 L37,84 Z"/>
      </g>
    </g>
    <g mask="url(#cover-knowledge-b)">
      <g transform="matrix(-1 0 0 1 1088 119)">
        <mask id="cover-knowledge-f" fill="#fff">
          <use xlink:href="#cover-knowledge-e"/>
        </mask>
        <use fill="#424A9A" xlink:href="#cover-knowledge-e"/>
        <rect width="122" height="28" x="11" y="119" fill="#FF8A8A" mask="url(#cover-knowledge-f)"/>
        <g transform="translate(37 28)">
          <mask id="cover-knowledge-h" fill="#fff">
            <use xlink:href="#cover-knowledge-g"/>
          </mask>
          <use fill="#10143A" xlink:href="#cover-knowledge-g"/>
          <rect width="72" height="11" y="16" fill="#FF8A8A" mask="url(#cover-knowledge-h)"/>
        </g>
        <path fill="#717CDC" fill-rule="nonzero" d="M98.5,79.5 C98.5,83.3659932 95.3659932,86.5 91.5,86.5 L89,86.5 L89,83.5 L91.5,83.5 C93.709139,83.5 95.5,81.709139 95.5,79.5 C95.5,77.290861 93.709139,75.5 91.5,75.5 L88.7972973,75.5 L88.7972973,63 L91.7972973,63 L91.7972973,72.5061992 C95.5253944,72.6619671 98.5,75.7336054 98.5,79.5 Z"/>
      </g>
    </g>
    <g mask="url(#cover-knowledge-b)">
      <g transform="matrix(-1 0 0 1 498 119)">
        <mask id="cover-knowledge-j" fill="#fff">
          <use xlink:href="#cover-knowledge-i"/>
        </mask>
        <use fill="#717CDC" xlink:href="#cover-knowledge-i"/>
        <rect width="122" height="27" x="12" y="119" fill="#10143A" mask="url(#cover-knowledge-j)"/>
        <path fill="#FF8A8A" d="M125,55 L125,56.9986233 C125,71.0993625 127.982098,85.0406899 133.750557,97.9075359 L141.113653,114.331303 C143.675574,120.045799 145,126.2375 145,132.5 L145,132.5 C145,137.746705 140.746705,142 135.5,142 L127,142 C117.058875,142 109,133.941125 109,124 L109,77 L125,55 Z" mask="url(#cover-knowledge-j)"/>
        <g transform="translate(37 15)">
          <mask id="cover-knowledge-l" fill="#fff">
            <use xlink:href="#cover-knowledge-k"/>
          </mask>
          <use fill="#FF8A8A" xlink:href="#cover-knowledge-k"/>
          <path fill="#232962" d="M36,13 L36,13 C55.882251,13 72,29.117749 72,49 L72,104 L0,104 L0,49 C-2.4348735e-15,29.117749 16.117749,13 36,13 Z" mask="url(#cover-knowledge-l)"/>
          <use fill="#FF8A8A" xlink:href="#cover-knowledge-m"/>
        </g>
        <polygon fill="#717CDC" fill-rule="nonzero" points="61 73.5 61 76.5 50.816 76.5 57.754 58.462 60.554 59.538 55.184 73.5"/>
      </g>
    </g>
    <g mask="url(#cover-knowledge-b)">
      <g transform="translate(881 349)">
        <mask id="cover-knowledge-o" fill="#fff">
          <use xlink:href="#cover-knowledge-n"/>
        </mask>
        <use fill="#10143A" xlink:href="#cover-knowledge-n"/>
        <rect width="122" height="27" x="12" y="119" fill="#717CDC" mask="url(#cover-knowledge-o)"/>
        <g transform="translate(37 28)">
          <mask id="cover-knowledge-q" fill="#fff">
            <use xlink:href="#cover-knowledge-p"/>
          </mask>
          <use fill="#232962" xlink:href="#cover-knowledge-p"/>
          <polygon fill="#FF8A8A" points="29 0 72 43 72 0" mask="url(#cover-knowledge-q)"/>
          <polygon fill="#FF8A8A" points="38 0 -5 43 -5 0" mask="url(#cover-knowledge-q)"/>
        </g>
        <polygon fill="#717CDC" fill-rule="nonzero" points="61 73.5 61 76.5 50.816 76.5 57.754 58.462 60.554 59.538 55.184 73.5"/>
        <polygon fill="#FF8A8A" points="109 71 127 71 136.5 81.5 119.25 81.5"/>
      </g>
    </g>
  </g>
</svg>
