<svg xmlns="http://www.w3.org/2000/svg" xmlns:xlink="http://www.w3.org/1999/xlink" width="1440" height="744" viewBox="0 0 1440 744">
  <defs>
    <rect id="cover-student-hub-a" width="1440" height="744"/>
    <path id="cover-student-hub-c" d="M48,0 L186,0 C212.509668,-4.86974701e-15 234,21.490332 234,48 L234,292 L0,292 L0,48 C-3.24649801e-15,21.490332 21.490332,4.86974701e-15 48,0 Z"/>
  </defs>
  <g fill="none" fill-rule="evenodd">
    <mask id="cover-student-hub-b" fill="#fff">
      <use xlink:href="#cover-student-hub-a"/>
    </mask>
    <use fill="#1D6675" xlink:href="#cover-student-hub-a"/>
    <g mask="url(#cover-student-hub-b)">
      <g transform="translate(1027 335)">
        <g transform="translate(0 122)">
          <mask id="cover-student-hub-d" fill="#fff">
            <use xlink:href="#cover-student-hub-c"/>
          </mask>
          <use fill="#399CB0" xlink:href="#cover-student-hub-c"/>
          <polygon fill="#144D59" fill-rule="nonzero" points="179 77 182 77 182 292 179 292" mask="url(#cover-student-hub-d)"/>
          <path fill="#58C2D7" fill-rule="nonzero" d="M98,19 L101,19 L101,74 L98,74 L98,19 Z M85,45 C83.3431458,45 82,43.6568542 82,42 C82,40.3431458 83.3431458,39 85,39 C86.6568542,39 88,40.3431458 88,42 C88,43.6568542 86.6568542,45 85,45 Z M85,61 C83.3431458,61 82,59.6568542 82,58 C82,56.3431458 83.3431458,55 85,55 C86.6568542,55 88,56.3431458 88,58 C88,59.6568542 86.6568542,61 85,61 Z" mask="url(#cover-student-hub-d)"/>
        </g>
        <path fill="#092A32" d="M82,37.5789474 L82,36 C82,16.117749 98.117749,-1.24245382e-13 118,-1.27897692e-13 C137.882251,-1.31550003e-13 154,16.117749 154,36 L154,122 L82,153 L82,122 L82,66 L67,66 L82,37.5789474 Z"/>
        <path fill="#FFC977" d="M82,36.5 L82,36 C82,16.117749 98.117749,-1.42108547e-14 118,-1.42108547e-14 C137.882251,-7.10542736e-15 154,16.117749 154,36 L154,37 L154,39.5 L63,39.5 L63,36.5 L82,36.5 Z"/>
      </g>
    </g>
    <g mask="url(#cover-student-hub-b)">
      <g transform="translate(745 417)">
        <path fill="#092A32" d="M117,0 L117,0 C151.373409,-6.31429285e-15 180.462491,25.3915992 185.106792,59.4498101 L201,176 L33,176 L48.8932077,59.4498101 C53.5375092,25.3915992 82.6265907,6.31429285e-15 117,0 Z"/>
        <path fill="#399CB0" d="M48,146 L186,146 C212.509668,146 234,167.490332 234,194 L234,366 L0,366 L0,194 C-3.24649801e-15,167.490332 21.490332,146 48,146 Z"/>
        <rect width="120" height="43" x="57" y="308" fill="#092A32"/>
        <path fill="#FFF" d="M179,310 L56,310 L43,310 L43,219 L56,146 L179,146 L192,219 L192,310 L179,310 Z"/>
        <path fill="#144D59" fill-rule="nonzero" d="M56,196.5 L56,193.5 L179,193.5 L179,196.5 L56,196.5 Z M56,172.5 L56,169.5 L179,169.5 L179,172.5 L56,172.5 Z M56,220.5 L56,217.5 L179,217.5 L179,220.5 L56,220.5 Z M56,244.5 L56,241.5 L179,241.5 L179,244.5 L56,244.5 Z M56,268.5 L56,265.5 L179,265.5 L179,268.5 L56,268.5 Z M56,292.5 L56,289.5 L179,289.5 L179,292.5 L56,292.5 Z"/>
        <path fill="#399CB0" d="M153,146 L118,180 L82,146 L81,146 L81,60 C81,40.117749 97.117749,24 117,24 C136.882251,24 153,40.117749 153,60 L153,146 Z"/>
        <polygon fill="#144D59" fill-rule="nonzero" points="102.216 76.5 113 76.5 113 79.5 97.784 79.5 108.607 52.443 111.393 53.557"/>
      </g>
    </g>
    <g mask="url(#cover-student-hub-b)">
      <g transform="translate(180 403)">
        <path fill="#399CB0" d="M154,59 C157.865993,59 161,62.1340068 161,66 C161,69.8659932 157.865993,73 154,73 L154,166 L82,166 L82,50 C82,30.117749 98.117749,14 118,14 C137.882251,14 154,30.117749 154,50 L154,59 Z"/>
        <path fill="#FFF" d="M100.476719,18.5452225 C105.662714,15.6499413 111.638675,14 118,14 C135.734688,14 150.474191,26.8239074 153.451428,43.7046394 L82,93 L82,50 C82,48.8318729 82.0556357,47.6767403 82.1644018,46.5371073 C80.6568242,46.8406961 79.0970158,47 77.5,47 C64.5213084,47 54,36.4786916 54,23.5 C54,10.5213084 64.5213084,0 77.5,0 C88.7789109,0 98.2019611,7.94588469 100.476719,18.5452225 Z"/>
        <path fill="#399CB0" d="M49,136 L187,136 C213.509668,136 235,157.490332 235,184 L235,356 L1,356 L1,184 C1,157.490332 22.490332,136 49,136 Z"/>
        <rect width="139" height="175" x="60" y="166" fill="#092A32"/>
        <path fill="#FFC977" d="M50,136 L82,136 L82,341 L0,341 L7.10542736e-15,186 C3.7236586e-15,158.385763 22.3857625,136 50,136 Z"/>
        <path fill="#FFC977" d="M202,136 L235,136 L235,341 L154,341 L154,184 C154,157.490332 175.490332,136 202,136 Z" transform="matrix(-1 0 0 1 389 0)"/>
        <polygon fill="#144D59" fill-rule="nonzero" points="60 197 63 197 63 412 60 412"/>
      </g>
    </g>
    <g mask="url(#cover-student-hub-b)">
      <g transform="translate(463 331)">
        <rect width="112" height="140" x="50" y="20" fill="#399CB0" rx="56" transform="rotate(-135 106 90)"/>
        <path fill="#092A32" d="M48,185 L186,185 C212.509668,185 234,206.490332 234,233 L234,413 L0,413 L0,233 C-3.24649801e-15,206.490332 21.490332,185 48,185 Z"/>
        <path fill="#FFC977" d="M153,185 L153,216 L81,185 L81,99 C81,79.117749 97.117749,63 117,63 C136.882251,63 153,79.117749 153,99 L153,185 Z"/>
        <path fill="#58C2D7" d="M136.490855,68.7275792 L81.1244723,95.9848752 C82.6561219,77.5134851 98.1331579,63 117,63 C124.182316,63 130.873379,65.1033053 136.490847,68.7275741 Z"/>
        <path fill="#FFC977" d="M118.5,350.505155 L214,319 L214,413 L118.5,413 L118.5,350.505155 Z M115.5,413 L20,413 L20,319 L115.5,350.505155 L115.5,413 Z"/>
        <polygon fill="#144D59" fill-rule="nonzero" points="137.501 91.045 140.499 90.955 141.546 125.5 128 125.5 128 122.5 138.454 122.5"/>
        <path fill="#FFF" fill-rule="nonzero" d="M201.53069,315.575308 L202.46931,318.424692 L116.994352,346.581149 L33.5205242,318.421303 L34.4794758,315.578697 L117.005648,343.418851 L201.53069,315.575308 Z M117.46321,336.573313 L116.999768,336.422845 L116.536371,336.573449 L117.46321,336.573313 Z M196.536371,310.573449 L197.463629,313.426551 L117.000232,339.577155 L39.5367899,314.426687 L40.4632101,311.573313 L116.999768,336.422845 L196.536371,310.573449 Z"/>
      </g>
    </g>
    <g mask="url(#cover-student-hub-b)">
      <g transform="translate(250 154)">
        <path fill="#399CB0" d="M81,-8.52651283e-14 L350,-9.9475983e-14 C405.228475,-1.58674029e-13 450,44.771525 450,100 L450,162 L81,162 C36.2649353,162 -2.2943244e-14,125.735065 -2.84217094e-14,81 L-2.84217094e-14,81 C-3.39001748e-14,36.2649353 36.2649353,-7.70474302e-14 81,-8.52651283e-14 Z" transform="matrix(-1 0 0 1 450 0)"/>
        <path fill="#144D59" fill-rule="nonzero" d="M85,71.5 L85,67.5 L365,67.5 L365,71.5 L85,71.5 Z M85,47.5 L85,43.5 L365,43.5 L365,47.5 L85,47.5 Z M85,119.5 L85,115.5 L293,115.5 L293,119.5 L85,119.5 Z"/>
        <path stroke="#144D59" stroke-width="4" d="M85,93.5 L365,93.5"/>
      </g>
    </g>
    <path fill="#092A32" d="M779.5,286 L911,286 C938.614237,286 961,308.385763 961,336 L961,365 L779.5,365 C757.684752,365 740,347.315248 740,325.5 L740,325.5 C740,303.684752 757.684752,286 779.5,286 Z" mask="url(#cover-student-hub-b)"/>
    <path fill="#58C2D7" d="M518.5,43 L650,43 C677.614237,43 700,65.3857625 700,93 L700,122 L518.5,122 C496.684752,122 479,104.315248 479,82.5 L479,82.5 C479,60.6847524 496.684752,43 518.5,43 Z" mask="url(#cover-student-hub-b)" transform="matrix(-1 0 0 1 1179 0)"/>
    <g mask="url(#cover-student-hub-b)">
      <g transform="translate(740 84)">
        <path fill="#FFC977" d="M81,0 L350,1.42108547e-14 C405.228475,4.06554845e-15 450,44.771525 450,100 L450,162 L81,162 C36.2649353,162 5.47846538e-15,125.735065 0,81 L0,81 C-5.47846538e-15,36.2649353 36.2649353,8.21769808e-15 81,0 Z"/>
        <path fill="#144D59" fill-rule="nonzero" d="M85,71.4022267 L85,67.4022267 L365,67.4022267 L365,71.4022267 L85,71.4022267 Z M85,47.4022267 L85,43.4022267 L365,43.4022267 L365,47.4022267 L85,47.4022267 Z M85,95.4022267 L85,91.4022267 L365,91.4022267 L365,95.4022267 L85,95.4022267 Z M85,119.402227 L85,115.402227 L293,115.402227 L293,119.402227 L85,119.402227 Z"/>
      </g>
    </g>
  </g>
</svg>
