<svg xmlns="http://www.w3.org/2000/svg" xmlns:xlink="http://www.w3.org/1999/xlink" width="1440" height="744" viewBox="0 0 1440 744">
  <defs>
    <rect id="cover-udacity-marketing-a" width="1440" height="744"/>
    <path id="cover-udacity-marketing-c" d="M109,296 L0,296 L0,100 C-6.76353751e-15,44.771525 44.771525,-1.03541531e-13 100,-1.13686838e-13 C103.033442,-1.14244072e-13 106.035337,0.135066329 109,0.399513123 L109,-8.52651283e-14 L444,-8.52651283e-14 L444,296 L109,296 Z"/>
  </defs>
  <g fill="none" fill-rule="evenodd">
    <mask id="cover-udacity-marketing-b" fill="#fff">
      <use xlink:href="#cover-udacity-marketing-a"/>
    </mask>
    <use fill="#BB3763" xlink:href="#cover-udacity-marketing-a"/>
    <g mask="url(#cover-udacity-marketing-b)">
      <g transform="translate(626 529)">
        <rect width="78" height="232" fill="#962249"/>
        <path fill="#6D1532" fill-rule="nonzero" d="M18.5,7.10542736e-15 L21.5,7.10542736e-15 L21.5,109 L18.5,109 L18.5,7.10542736e-15 Z M58,-2.13162821e-14 L61,-2.13162821e-14 L61,90 L58,90 L58,-2.13162821e-14 Z M58,102.332031 L61,102.332031 L61,235 L58,235 L58,102.332031 Z M39,183 L42,183 L42,292 L39,292 L39,183 Z M39,145.207031 L42,145.207031 L42,170 L39,170 L39,145.207031 Z M38.5,106.52512 L38.5,1.42108547e-14 L41.5,1.42108547e-14 L41.5,107.47488 L22.5,134.47488 L22.5,231 L19.5,231 L19.5,133.52512 L38.5,106.52512 Z"/>
      </g>
    </g>
    <g mask="url(#cover-udacity-marketing-b)">
      <g transform="translate(416 162)">
        <g transform="translate(0 71)">
          <mask id="cover-udacity-marketing-d" fill="#fff">
            <use xlink:href="#cover-udacity-marketing-c"/>
          </mask>
          <use fill="#D44F7B" xlink:href="#cover-udacity-marketing-c"/>
          <path fill="#962249" fill-rule="nonzero" d="M401-5.68434189e-14C351.294373-4.75175455e-14 311 40.2943725 311 90L311 296 511 296 511-5.68434189e-14 401-5.68434189e-14zM401-3L514-3 514 299 308 299 308 90C308 38.6375183 349.637518-3 401-3zM39 296L239 296 239 302 36 302 36 87C36 35.6375183 77.6375183-6 129-6L239-6 239-3 126-3C77.9512268-3 39 38.9512268 39 87L39 296z" mask="url(#cover-udacity-marketing-d)"/>
        </g>
        <path fill="#962249" d="M443,71 L443,71 C498.228475,71 543,115.771525 543,171 L543,367 L343,367 L343,171 C343,115.771525 387.771525,71 443,71 Z"/>
        <path fill="#6D1532" d="M443,95 L443,95 C484.973641,95 519,129.026359 519,171 L519,343 L367,343 L367,171 C367,129.026359 401.026359,95 443,95 Z"/>
        <rect width="262" height="196" x="367" y="147" fill="#D44F7B"/>
        <rect width="208" height="159" x="367" y="184" fill="#FFA16F"/>
        <rect width="38" height="42" x="526" y="194" fill="#6D1532"/>
        <path fill="#FFA16F" fill-rule="nonzero" d="M17.561947,16.9390782 L12.1516354,20.3820038 C12.1169078,20.4044463 12.082013,20.4266524 12.0469533,20.4486197 L11.6876662,20.6772569 L11.6805593,20.6660891 C10.4009932,21.3844616 8.92480735,21.7941176 7.35294118,21.7941176 C2.46359677,21.7941176 -1.5,17.8305209 -1.5,12.9411765 L-1.5,4.41176471 L-0.771743633,3.12552532 L6.58119754,-1.28623939 L8.85294118,1.01696429e-13 L8.85294118,10.1470588 C8.85294118,12.8110206 11.0125089,14.9705882 13.6764706,14.9705882 C14.5289387,14.9705882 15.3297568,14.7494483 16.0246881,14.3614053 L11.0583782,17.5217844 C11.0441795,17.516743 11.0299991,17.511662 11.0158378,17.5065414 C12.3511554,16.4338094 13.2058824,14.787309 13.2058824,12.9411765 L13.2058824,3.23529412 L13.977418,1.9240582 L19.2715356,-1.01711827 L21.5,0.294117647 L21.5,10.1470588 C21.5,13.0537073 19.9148949,15.5901345 17.561947,16.9390782 Z M16.1001799,14.3133651 L16.492133,14.0639404 C17.7082293,13.1882046 18.5,11.7600957 18.5,10.1470588 L18.5,2.84338934 L16.2058824,4.11789914 L16.2058824,12.9411765 C16.2058824,13.4078885 16.1697675,13.8661654 16.1001799,14.3133651 Z M5.85294118,10.1470588 L5.85294118,2.64928557 L1.5,5.26105027 L1.5,12.9411765 C1.5,16.1736666 4.12045102,18.7941176 7.35294118,18.7941176 C8.73929876,18.7941176 10.0130779,18.312112 11.0158378,17.5065414 C8.00480584,16.4177737 5.85294118,13.5337137 5.85294118,10.1470588 Z" transform="translate(535 205)"/>
        <path fill="#FFA16F" d="M104,40 L104,146.082148 C116.319061,147.098449 126,157.418672 126,170 C126,183.254834 115.254834,194 102,194 C88.745166,194 78,183.254834 78,170 C78,157.080149 88.2089136,146.544718 100.999992,146.020456 L101,0 L104,0 L166,0 L166,40 L104,40 Z"/>
        <path fill="#6D1532" fill-rule="nonzero" d="M367,247 L367,244 L467,244 L467,247 L367,247 Z M367,263 L367,260 L467,260 L467,263 L367,263 Z M367,279 L367,276 L419,276 L419,279 L367,279 Z"/>
      </g>
    </g>
  </g>
</svg>
