<svg xmlns="http://www.w3.org/2000/svg" xmlns:xlink="http://www.w3.org/1999/xlink" width="1440" height="744" viewBox="0 0 1440 744">
  <defs>
    <rect id="cover-highlights-every-day-a" width="1440" height="744"/>
    <rect id="cover-highlights-every-day-c" width="26" height="20" rx="10"/>
    <path id="cover-highlights-every-day-e" d="M90,0 L90,0 C119.041247,-5.33479057e-15 144.013818,20.5708187 149.575518,49.0745296 L180,205 L0,205 L30.424482,49.0745296 C35.9861817,20.5708187 60.9587528,5.33479057e-15 90,0 Z"/>
    <path id="cover-highlights-every-day-g" d="M36,0 L36,0 C55.882251,-3.65231026e-15 72,16.117749 72,36 L72,96 C72,115.882251 55.882251,132 36,132 L36,132 C16.117749,132 -4.01976906e-14,115.882251 -4.26325641e-14,96 L-4.26325641e-14,36 C-4.50674376e-14,16.117749 16.117749,3.65231026e-15 36,0 Z"/>
  </defs>
  <g fill="none" fill-rule="evenodd">
    <mask id="cover-highlights-every-day-b" fill="#fff">
      <use xlink:href="#cover-highlights-every-day-a"/>
    </mask>
    <use fill="#D44640" xlink:href="#cover-highlights-every-day-a"/>
    <path fill="#FF926B" fill-rule="nonzero" d="M267.450962,342.333648 L254.700962,320.25 L257.299038,318.75 L268.549038,338.235572 L290.199673,325.735572 L302.199673,346.520181 L322.984283,334.520181 L335.734283,356.603829 L333.136207,358.103829 L321.886207,338.618257 L301.101597,350.618257 L289.101597,329.833648 L267.450962,342.333648 Z M114.956515,588.765057 L104.419873,582.681724 L105.919873,580.083648 L113.858439,584.666981 L119.470684,574.946288 L128.708288,580.279621 L134.096043,570.947756 L144.632686,577.031089 L143.132686,579.629165 L135.19412,575.045832 L129.806365,584.377697 L120.56876,579.044364 L114.956515,588.765057 Z M363.700076,106.834345 L363.311848,105.385456 L360.551111,95.0822476 L363.448889,94.3057904 L365.821397,103.16011 L376.663421,100.254999 L379.424158,110.558208 L389.832501,107.7693 L392.981466,119.521398 L390.083689,120.297855 L387.711181,111.443535 L377.302837,114.232442 L374.542101,103.929233 L363.700076,106.834345 Z M1232.68436,89.363869 L1233.07258,87.9149802 L1235.83332,77.6117714 L1238.7311,78.3882286 L1236.35859,87.2425486 L1247.20061,90.1476604 L1244.43988,100.450869 L1254.84822,103.239776 L1251.69926,114.991874 L1248.80148,114.215417 L1251.17399,105.361097 L1240.76564,102.57219 L1243.52638,92.2689807 L1232.68436,89.363869 Z M853.024305,143.232059 L852.274305,141.933021 L846.940971,132.695416 L849.539047,131.195416 L854.122381,139.133982 L863.843074,133.521738 L869.176407,142.759342 L878.508273,137.371587 L884.591606,147.908229 L881.99353,149.408229 L877.410197,141.469663 L868.078331,146.857418 L862.744998,137.619814 L853.024305,143.232059 Z M1344.36387,593.848222 L1332.61177,590.699257 L1333.38823,587.801479 L1342.24255,590.173987 L1345.14766,579.331963 L1355.45087,582.092699 L1358.23978,571.684356 L1369.99187,574.833321 L1369.21542,577.731098 L1360.3611,575.35859 L1357.57219,585.766934 L1347.26898,583.006197 L1344.36387,593.848222 Z M98.5,208.5 L98.5,233.5 L97,233.5 L73,233.5 L73,230.5 L95.5,230.5 L95.5,205.5 L119.5,205.5 L119.5,181.5 L145,181.5 L145,184.5 L122.5,184.5 L122.5,208.5 L98.5,208.5 Z M1095.52732,226.150997 L1096.97621,225.762768 L1120.15843,219.551111 L1120.93489,222.448889 L1099.20156,228.272317 L1105.67203,252.420463 L1082.48981,258.63212 L1088.70147,281.81434 L1064.07036,288.414225 L1063.2939,285.516448 L1085.02724,279.693019 L1078.81558,256.5108 L1101.9978,250.299143 L1095.52732,226.150997 Z M598.819805,149.970563 L599.880465,148.909903 L616.851028,131.93934 L618.972348,134.06066 L603.062446,149.970563 L620.740115,167.648232 L603.769553,184.618795 L620.740115,201.589358 L602.708892,219.620581 L600.587572,217.49926 L616.497475,201.589358 L599.526912,184.618795 L616.497475,167.648232 L598.819805,149.970563 Z M1366.98428,335.520181 L1367.73428,336.819219 L1379.73428,357.603829 L1377.13621,359.103829 L1365.88621,339.618257 L1344.23557,352.118257 L1332.23557,331.333648 L1311.45096,343.333648 L1298.70096,321.25 L1301.29904,319.75 L1312.54904,339.235572 L1333.33365,327.235572 L1345.33365,348.020181 L1366.98428,335.520181 Z" mask="url(#cover-highlights-every-day-b)"/>
    <g mask="url(#cover-highlights-every-day-b)">
      <g transform="translate(230 614)">
        <rect width="72" height="146" x="137" y="23" fill="#FF926B"/>
        <circle cx="149" cy="54" r="4" fill="#641916"/>
        <circle cx="197" cy="54" r="4" fill="#641916"/>
        <path fill="#FCCBBA" d="M157,50 L189,50 L189,58 C189,62.418278 185.418278,66 181,66 L165,66 C160.581722,66 157,62.418278 157,58 L157,50 Z"/>
        <path fill="#FF926B" d="M113,80 L209,80 L209,152 L41,152 L41,152 C41,112.235498 73.235498,80 113,80 Z"/>
        <polygon fill="#FF926B" points="137 40 137 0 166 29"/>
        <polygon fill="#FF926B" points="180 40 180 0 209 29" transform="matrix(-1 0 0 1 389 0)"/>
        <polygon fill="#641916" points="166 50 172.848 57 180 50"/>
        <path stroke="#FF926B" stroke-width="8" d="M45,132.132813 L45,91 C45,66.1471863 24.8528137,46 -8.26636589e-15,46"/>
      </g>
    </g>
    <g mask="url(#cover-highlights-every-day-b)">
      <g transform="translate(556 355)">
        <g transform="translate(84 29)">
          <circle cx="38" cy="17" r="17" fill="#FFF"/>
          <path fill="#D44640" fill-rule="nonzero" d="M17,31 C24.7319865,31 31,24.7319865 31,17 C31,9.2680135 24.7319865,3 17,3 C9.2680135,3 3,9.2680135 3,17 C3,24.7319865 9.2680135,31 17,31 Z M17,34 C7.61115925,34 0,26.3888407 0,17 C0,7.61115925 7.61115925,0 17,0 C26.3888407,0 34,7.61115925 34,17 C34,26.3888407 26.3888407,34 17,34 Z M59,31 C66.7319865,31 73,24.7319865 73,17 C73,9.2680135 66.7319865,3 59,3 C51.2680135,3 45,9.2680135 45,17 C45,24.7319865 51.2680135,31 59,31 Z M59,34 C49.6111593,34 42,26.3888407 42,17 C42,7.61115925 49.6111593,0 59,0 C68.3888407,0 76,7.61115925 76,17 C76,26.3888407 68.3888407,34 59,34 Z"/>
        </g>
        <path fill="#FF926B" d="M51,-5.68434189e-14 L107,-5.68434189e-14 C124.120827,-5.99884638e-14 138,13.8791728 138,31 L51,31 L51,-5.68434189e-14 Z"/>
        <path fill="#FF926B" d="M51,32 L106,32 C110.418278,32 114,35.581722 114,40 L51,40 L51,32 Z" transform="scale(1 -1) rotate(-45 -4.412 0)"/>
        <path fill="#3F0E0C" d="M42,41 L76,41 L76,82 C76,105.195959 57.1959595,124 34,124 L0,124 L0,83 C-2.84068575e-15,59.8040405 18.8040405,41 42,41 Z"/>
        <circle cx="51" cy="25" r="25" fill="#3F0E0C"/>
        <rect width="25" height="51" x="51" fill="#3F0E0C"/>
        <circle cx="51" cy="25" r="4" fill="#FF926B"/>
      </g>
    </g>
    <g mask="url(#cover-highlights-every-day-b)">
      <g transform="translate(771 303)">
        <circle cx="6" cy="26" r="6" fill="#641916"/>
        <path fill="#FF926B" d="M29,0 L29,0 C33.418278,-8.11624501e-16 37,3.581722 37,8 L37,8 C37,12.418278 33.418278,16 29,16 L21,16 L21,8 C21,3.581722 24.581722,8.11624501e-16 29,0 Z"/>
        <g transform="translate(10 16)">
          <mask id="cover-highlights-every-day-d" fill="#fff">
            <use xlink:href="#cover-highlights-every-day-c"/>
          </mask>
          <use fill="#FF926B" xlink:href="#cover-highlights-every-day-c"/>
          <rect width="6" height="20" x="15" fill="#641916" mask="url(#cover-highlights-every-day-d)"/>
          <rect width="6" height="20" x="5" fill="#641916" mask="url(#cover-highlights-every-day-d)"/>
        </g>
      </g>
    </g>
    <g mask="url(#cover-highlights-every-day-b)">
      <g transform="translate(975 428)">
        <path fill="#641916" d="M189,113.68751 C231.112252,125.468624 262,164.127202 262,210 L262,470 L0,470 L0,210 C-5.6177975e-15,164.127202 30.8877478,125.468624 73,113.68751 L73,55 C73,46.6668227 75.1235172,38.8296194 78.8589419,32 L77,32 C68.163444,32 61,24.836556 61,16 C61,7.163444 68.163444,-1.623249e-15 77,0 C85.836556,1.623249e-15 93,7.163444 93,16 L93,16.008379 C100.880949,10.3390472 110.550536,7 121,7 L141,7 C151.449464,7 161.119051,10.3390472 169,16.008379 L169,16 C169,7.163444 176.163444,1.623249e-15 185,0 C193.836556,-1.623249e-15 201,7.163444 201,16 C201,24.836556 193.836556,32 185,32 L183.141058,32 C186.876483,38.8296194 189,46.6668227 189,55 L189,113.68751 Z"/>
        <g transform="translate(55 62)">
          <path fill="#FF926B" d="M-1.66977543e-13,0 L39,0 L39,36 L24,36 C10.745166,36 -1.65354294e-13,25.254834 -1.66977543e-13,12 L-1.66977543e-13,0 Z"/>
          <polygon fill="#641916" points="0 11 11 0 0 0"/>
        </g>
        <circle cx="120" cy="68" r="6" fill="#FF926B"/>
        <g transform="translate(145 226)">
          <circle cx="30" cy="27" r="27" fill="#FF926B"/>
          <g fill="#FF926B" transform="translate(0 39)">
            <circle cx="9" cy="9" r="9"/>
            <circle cx="23" cy="9" r="9"/>
            <circle cx="37" cy="9" r="9"/>
            <circle cx="51" cy="9" r="9"/>
          </g>
          <polyline stroke="#FF926B" stroke-width="3" points="9 50 29.5 114 50 50"/>
        </g>
      </g>
    </g>
    <g mask="url(#cover-highlights-every-day-b)">
      <g transform="translate(738 355)">
        <g transform="translate(82)">
          <mask id="cover-highlights-every-day-f" fill="#fff">
            <use xlink:href="#cover-highlights-every-day-e"/>
          </mask>
          <use fill="#3F0E0C" xlink:href="#cover-highlights-every-day-e"/>
          <path fill="#FF926B" fill-rule="nonzero" d="M114.069816,39.0606602 L111.948495,36.9393398 L120.948495,27.9393398 L123.069816,30.0606602 L114.069816,39.0606602 Z M119.069816,44.0606602 L116.948495,41.9393398 L125.948495,32.9393398 L128.069816,35.0606602 L119.069816,44.0606602 Z" mask="url(#cover-highlights-every-day-f)"/>
        </g>
        <path fill="#641916" d="M164,33 L164,33 C183.882251,33 200,49.117749 200,69 L200,185 L128,185 L128,69 C128,49.117749 144.117749,33 164,33 Z"/>
        <polygon fill="#FF926B" fill-rule="nonzero" points="144.216 85.5 155 85.5 155 88.5 139.784 88.5 150.607 61.443 153.393 62.557"/>
        <path fill="#FF926B" d="M123,135 L227,135 C253.509668,135 275,156.490332 275,183 L275,360 L75,360 L75,183 C75,156.490332 96.490332,135 123,135 Z"/>
        <circle cx="164" cy="135" r="36" fill="#641916"/>
        <rect width="176" height="29" x="91" y="360" fill="#3F0E0C"/>
        <rect width="166" height="124" x="16" y="217" fill="#FFF" rx="12"/>
        <path fill="#641916" d="M198,269 L227.5,269 L227.5,176 L230.5,176 L230.5,272 L198,272 L198,309 L182,309 C159.90861,309 142,291.09139 142,269 L198,269 Z"/>
        <path fill="#641916" d="M0,269 L56,269 L56,309 L40,309 C17.90861,309 2.705415e-15,291.09139 0,269 Z" transform="matrix(-1 0 0 1 56 0)"/>
      </g>
    </g>
    <g mask="url(#cover-highlights-every-day-b)">
      <g transform="matrix(-1 0 0 1 706 369)">
        <rect width="176" height="62" x="91" y="313" fill="#3F0E0C"/>
        <path fill="#641916" d="M131,97 L219,97 C245.509668,97 267,118.490332 267,145 L267,330 L83,330 L83,145 C83,118.490332 104.490332,97 131,97 Z"/>
        <g transform="translate(128)">
          <mask id="cover-highlights-every-day-h" fill="#fff">
            <use xlink:href="#cover-highlights-every-day-g"/>
          </mask>
          <use fill="#FF926B" xlink:href="#cover-highlights-every-day-g"/>
          <path fill="#641916" fill-rule="nonzero" d="M21,74.5 L21,77.5 L17,77.5 C12.8578644,77.5 9.5,74.1421356 9.5,70 C9.5,65.8578644 12.8578644,62.5 17,62.5 L21,62.5 L21,65.5 L17,65.5 C14.5147186,65.5 12.5,67.5147186 12.5,70 C12.5,72.4852814 14.5147186,74.5 17,74.5 L21,74.5 Z" mask="url(#cover-highlights-every-day-h)"/>
          <path fill="#641916" d="M8,14 L80,14 L80,54 L72,54 L72,66 L62,66 L62,54 L48,54 C36.0530747,54 25.3294445,48.7624511 18,40.458244 L18,54 C8.0588745,54 1.21743675e-15,45.9411255 0,36 L0,14 L8,14 Z" mask="url(#cover-highlights-every-day-h)"/>
          <path fill="#FFF" d="M0,35 L-18,35 L-18,32 L0,32 L0,0 L72,0 L72,35 L0,35 Z" mask="url(#cover-highlights-every-day-h)"/>
        </g>
        <rect width="166" height="124" x="16" y="171" fill="#FCCBBA"/>
        <rect width="83" height="124" x="16" y="171" fill="#FFF"/>
        <path fill="#FF926B" d="M219.5,231 L219.5,138 L222.5,138 L222.5,201 L260,201 L260,231 C260,253.09139 242.09139,271 220,271 L174,271 C151.90861,271 134,253.09139 134,231 L219.5,231 Z"/>
        <path fill="#FF926B" d="M0,231 L56,231 L56,271 L40,271 C17.90861,271 2.705415e-15,253.09139 0,231 Z" transform="matrix(-1 0 0 1 56 0)"/>
      </g>
    </g>
  </g>
</svg>
