<?xml version="1.0" encoding="UTF-8"?>
<svg width="1440px" height="744px" viewBox="0 0 1440 744" version="1.1" xmlns="http://www.w3.org/2000/svg" xmlns:xlink="http://www.w3.org/1999/xlink">
    <!-- Generator: Sketch 52.5 (67469) - http://www.bohemiancoding.com/sketch -->
    <title>Group 15</title>
    <desc>Created with Sketch.</desc>
    <defs>
        <rect id="path-1" x="0" y="0" width="1440" height="744"></rect>
        <path d="M109,296 L0,296 L0,100 C-6.76353751e-15,44.771525 44.771525,-1.03541531e-13 100,-1.13686838e-13 C103.033442,-1.14244072e-13 106.035337,0.135066329 109,0.399513123 L109,-8.52651283e-14 L444,-8.52651283e-14 L444,296 L109,296 Z" id="path-3"></path>
    </defs>
    <g id="Projects" stroke="none" stroke-width="1" fill="none" fill-rule="evenodd">
        <g id="Udacity-Marketing" transform="translate(0.000000, -360.000000)">
            <g id="Group-15" transform="translate(0.000000, 360.000000)">
                <mask id="mask-2" fill="white">
                    <use xlink:href="#path-1"></use>
                </mask>
                <use id="Rectangle-3" fill="#BB3763" xlink:href="#path-1"></use>
                <g id="Group-5" mask="url(#mask-2)">
                    <g transform="translate(626.000000, 528.000000)">
                        <rect id="Rectangle" stroke="none" fill="#962249" fill-rule="evenodd" x="0" y="1" width="78" height="232"></rect>
                        <path d="M20,1 L20,110" id="Path" stroke="#6D1532" stroke-width="3" fill="none"></path>
                        <path d="M59.5,1 L59.5,91" id="Path-Copy-3" stroke="#6D1532" stroke-width="3" fill="none"></path>
                        <path d="M59.5,103.332031 L59.5,236" id="Path-Copy-4" stroke="#6D1532" stroke-width="3" fill="none"></path>
                        <path d="M40.5,184 L40.5,293" id="Path-Copy" stroke="#6D1532" stroke-width="3" fill="none"></path>
                        <path d="M40.5,146.207031 L40.5,171" id="Path-Copy-2" stroke="#6D1532" stroke-width="3" fill="none"></path>
                        <polyline id="Path-23" stroke="#6D1532" stroke-width="3" fill="none" points="40 1 40 108 21 135 21 232"></polyline>
                    </g>
                </g>
                <g id="Group-3" mask="url(#mask-2)">
                    <g transform="translate(416.000000, 162.000000)">
                        <g id="Group-6" stroke="none" stroke-width="1" fill="none" fill-rule="evenodd" transform="translate(0.000000, 71.000000)">
                            <mask id="mask-4" fill="white">
                                <use xlink:href="#path-3"></use>
                            </mask>
                            <use id="Combined-Shape" fill="#D44F7B" xlink:href="#path-3"></use>
                            <path d="M401,-1.5 L512.5,-1.5 L512.5,297.5 L309.5,297.5 L309.5,90 C309.5,39.4659454 350.465945,-1.5 401,-1.5 Z" id="Rectangle-Copy-4" stroke="#962249" stroke-width="3" mask="url(#mask-4)"></path>
                            <path d="M239.5,297.5 L36.5,297.5 L36.5,90 C36.5,39.4659454 77.4659454,-1.5 128,-1.5 L239.5,-1.5 L239.5,297.5 Z" id="Path" stroke="#962249" stroke-width="3" mask="url(#mask-4)"></path>
                        </g>
                        <path d="M443,71 L443,71 C498.228475,71 543,115.771525 543,171 L543,367 L343,367 L343,171 C343,115.771525 387.771525,71 443,71 Z" id="Rectangle" stroke="none" fill="#962249" fill-rule="evenodd"></path>
                        <path d="M443,95 L443,95 C484.973641,95 519,129.026359 519,171 L519,343 L367,343 L367,171 C367,129.026359 401.026359,95 443,95 Z" id="Rectangle-Copy-2" stroke="none" fill="#6D1532" fill-rule="evenodd"></path>
                        <rect id="Rectangle-Copy-3" stroke="none" fill="#D44F7B" fill-rule="evenodd" x="367" y="147" width="262" height="196"></rect>
                        <rect id="Rectangle" stroke="none" fill="#FFA16F" fill-rule="evenodd" x="367" y="184" width="208" height="159"></rect>
                        <rect id="Rectangle" stroke="none" fill="#6D1532" fill-rule="evenodd" x="526" y="194" width="38" height="42"></rect>
                        <g id="Group-19" stroke="none" stroke-width="1" fill="none" fill-rule="evenodd" transform="translate(535.000000, 205.000000)">
                            <path d="M14.7058824,3.23529412 L14.7058824,12.9411765 C14.7058824,17.0020937 11.4138585,20.2941176 7.35294118,20.2941176 L7.35294118,20.2941176 C3.2920239,20.2941176 3.13480149e-15,17.0020937 4.4408921e-15,12.9411765 L0,4.41176471 L7.35294118,-2.84217094e-14 L7.35294118,10.1470588 C7.35294118,13.6394477 10.1840817,16.4705882 13.6764706,16.4705882 L13.6764706,16.4705882 C17.1688594,16.4705882 20,13.6394477 20,10.1470588 L20,0.294117647 L14.7058824,3.23529412 Z" id="Path" stroke="#FFA16F" stroke-width="3" stroke-linejoin="bevel"></path>
                            <path d="M10.8823529,19.4117647 L17.3529412,15.2941176" id="Path-13" stroke="#FFA16F" stroke-width="3"></path>
                        </g>
                        <circle id="Oval" stroke="none" fill="#FFA16F" fill-rule="evenodd" cx="102" cy="170" r="24"></circle>
                        <path d="M367,245.5 L467,245.5" id="Path-2" stroke="#6D1532" stroke-width="3" fill="none"></path>
                        <path d="M367,261.5 L467,261.5" id="Path-2-Copy" stroke="#6D1532" stroke-width="3" fill="none"></path>
                        <path d="M367,277.5 L419,277.5" id="Path-2-Copy-2" stroke="#6D1532" stroke-width="3" fill="none"></path>
                        <path d="M102.5,157.5 L102.5,0" id="Path-3" stroke="#FFA16F" stroke-width="3" fill="none"></path>
                        <rect id="Rectangle" stroke="none" fill="#FFA16F" fill-rule="evenodd" x="102" y="0" width="64" height="40"></rect>
                    </g>
                </g>
            </g>
        </g>
    </g>
</svg>