<?xml version="1.0" encoding="UTF-8"?>
<svg width="1440px" height="744px" viewBox="0 0 1440 744" version="1.1" xmlns="http://www.w3.org/2000/svg" xmlns:xlink="http://www.w3.org/1999/xlink">
    <!-- Generator: Sketch 52.5 (67469) - http://www.bohemiancoding.com/sketch -->
    <title>Group 15</title>
    <desc>Created with Sketch.</desc>
    <defs>
        <rect id="path-1" x="0" y="0" width="1440" height="744"></rect>
    </defs>
    <g id="Projects" stroke="none" stroke-width="1" fill="none" fill-rule="evenodd">
        <g id="Veritas-Modal" transform="translate(0.000000, -360.000000)">
            <g id="Group-15" transform="translate(0.000000, 360.000000)">
                <mask id="mask-2" fill="white">
                    <use xlink:href="#path-1"></use>
                </mask>
                <use id="Rectangle-3" fill="#782378" xlink:href="#path-1"></use>
                <g id="Group-26" mask="url(#mask-2)" stroke-width="3">
                    <g transform="translate(454.000000, 56.000000)">
                        <circle id="Oval" stroke="#8A278A" cx="40" cy="40" r="38.5"></circle>
                        <path d="M39.3835155,1.50483585 C18.4048617,1.83416878 1.5,18.9429134 1.5,40 C1.5,61.2629629 18.7370371,78.5 40,78.5 C61.0570866,78.5 78.1658312,61.5951383 78.4951641,40.6164845 L39.3835155,1.50483585 Z" id="Path" stroke="#B73BB7"></path>
                    </g>
                </g>
                <g id="Group-26-Copy" mask="url(#mask-2)" stroke-width="3">
                    <g transform="translate(558.000000, 80.000000)">
                        <circle id="Oval" stroke="#8A278A" cx="28" cy="28" r="26.5"></circle>
                        <path d="M27.3856655,1.5069808 C13.0338805,1.83345436 1.5,13.5697861 1.5,28 C1.5,42.6355459 13.3644541,54.5 28,54.5 C42.4302139,54.5 54.1665456,42.9661195 54.4930192,28.6143345 L27.3856606,1.50698091 Z" id="Path" stroke="#B73BB7"></path>
                    </g>
                </g>
                <g id="Group-26-Copy-2" mask="url(#mask-2)" stroke-width="3">
                    <g transform="translate(638.000000, 104.000000)">
                        <circle id="Oval" stroke="#8A278A" cx="16" cy="16" r="14.5"></circle>
                        <path d="M15.3912277,1.51254807 C7.66543757,1.83162696 1.5,8.19580593 1.5,16 C1.5,24.0081289 7.99187113,30.5 16,30.5 C23.8041941,30.5 30.168373,24.3345624 30.4874519,16.6087723 L15.3912277,1.51254807 Z" id="Path" stroke="#B73BB7"></path>
                    </g>
                </g>
                <g id="Group-24" mask="url(#mask-2)">
                    <g transform="translate(48.000000, 108.000000)" id="Group-25">
                        <g>
                            <path d="M0,16 L358,16" id="Path-20" stroke="#9D339D" stroke-width="3"></path>
                            <circle id="Oval" fill="#9D339D" cx="116" cy="16" r="16"></circle>
                            <circle id="Oval-Copy-8" fill="#782378" cx="116" cy="16" r="6"></circle>
                        </g>
                    </g>
                </g>
                <rect id="Rectangle" fill="#FFA37A" mask="url(#mask-2)" x="454" y="184" width="532" height="376"></rect>
                <rect id="Rectangle" fill="#782378" mask="url(#mask-2)" x="502" y="522" width="171" height="3"></rect>
                <rect id="Rectangle-Copy-11" fill="#782378" mask="url(#mask-2)" x="769" y="522" width="171" height="3"></rect>
                <rect id="Rectangle" fill="#9D339D" mask="url(#mask-2)" x="718" y="64" width="268" height="72"></rect>
                <rect id="Rectangle-Copy-10" fill="#9D339D" mask="url(#mask-2)" x="262" y="-10" width="144" height="90"></rect>
                <rect id="Rectangle-Copy-9" fill="#9D339D" mask="url(#mask-2)" x="718" y="-56" width="268" height="72"></rect>
                <rect id="Rectangle" fill="#9D339D" mask="url(#mask-2)" x="240" y="184" width="166" height="72"></rect>
                <rect id="Rectangle-Copy" stroke="#9D339D" stroke-width="3" mask="url(#mask-2)" x="-17.5" y="185.5" width="232" height="69"></rect>
                <rect id="Rectangle-Copy-2" stroke="#9D339D" stroke-width="3" mask="url(#mask-2)" x="1035.5" y="488.5" width="355" height="69"></rect>
                <g id="Group-20" mask="url(#mask-2)" stroke="#9D339D" stroke-width="3">
                    <g transform="translate(1034.000000, 391.000000)">
                        <rect id="Rectangle" x="1.5" y="1.5" width="45" height="45"></rect>
                        <polyline id="Path-4" points="11 23.453125 19.546875 32 37 14.546875"></polyline>
                    </g>
                </g>
                <g id="Group-20-Copy" mask="url(#mask-2)" stroke="#9D339D" stroke-width="3">
                    <g transform="translate(1034.000000, 319.000000)" id="Rectangle">
                        <rect x="1.5" y="1.5" width="45" height="45"></rect>
                    </g>
                </g>
                <rect id="Rectangle" stroke="#9D339D" stroke-width="3" mask="url(#mask-2)" x="1035.5" y="248.5" width="45" height="45"></rect>
                <path d="M1106,263.5 L1464,263.5" id="Path-20" stroke="#9D339D" stroke-width="3" mask="url(#mask-2)"></path>
                <path d="M1106,279.5 L1464,279.5" id="Path-20-Copy-4" stroke="#9D339D" stroke-width="3" mask="url(#mask-2)"></path>
                <path d="M1106,407.5 L1464,407.5" id="Path-20-Copy-3" stroke="#9D339D" stroke-width="3" mask="url(#mask-2)"></path>
                <path d="M1106,423.5 L1464,423.5" id="Path-20-Copy-6" stroke="#9D339D" stroke-width="3" mask="url(#mask-2)"></path>
                <path d="M1106,335.5 L1464,335.5" id="Path-20-Copy-2" stroke="#9D339D" stroke-width="3" mask="url(#mask-2)"></path>
                <path d="M1106,351.5 L1464,351.5" id="Path-20-Copy-5" stroke="#9D339D" stroke-width="3" mask="url(#mask-2)"></path>
                <rect id="Rectangle-Copy-3" fill="#9D339D" mask="url(#mask-2)" x="1034" y="556" width="358" height="187"></rect>
                <rect id="Rectangle-Copy-7" fill="#9D339D" mask="url(#mask-2)" x="1034" y="-1" width="358" height="200"></rect>
                <rect id="Rectangle-Copy-8" fill="#9D339D" mask="url(#mask-2)" x="114" y="40" width="100" height="40"></rect>
                <rect id="Rectangle" fill="#9D339D" mask="url(#mask-2)" transform="translate(164.000000, 70.000000) rotate(-45.000000) translate(-164.000000, -70.000000) " x="148" y="54" width="32" height="32"></rect>
                <rect id="Rectangle" fill="#9D339D" mask="url(#mask-2)" transform="translate(1386.000000, 99.000000) rotate(-45.000000) translate(-1386.000000, -99.000000) " x="1370" y="83" width="32" height="32"></rect>
                <rect id="Rectangle-Copy-6" fill="#9D339D" mask="url(#mask-2)" x="454" y="680" width="362" height="187"></rect>
                <g id="Group-25" mask="url(#mask-2)">
                    <g transform="translate(454.000000, 608.000000)">
                        <path d="M0.5,24 L0.5,-1.95399252e-13" id="Path-19" stroke="#9D339D" stroke-width="3" fill="none"></path>
                        <path d="M361.5,24 L361.5,-1.95399252e-13" id="Path-19-Copy" stroke="#9D339D" stroke-width="3" fill="none"></path>
                        <path d="M1,12 L153,12" id="Path-20" stroke="#9D339D" stroke-width="3" fill="none"></path>
                        <path d="M210,12 L362,12" id="Path-20-Copy" stroke="#9D339D" stroke-width="3" fill="none"></path>
                        <rect id="Rectangle" stroke="none" fill="#9D339D" fill-rule="evenodd" x="162" y="4" width="39" height="16" rx="8"></rect>
                    </g>
                </g>
                <g id="Group-21" mask="url(#mask-2)">
                    <g transform="translate(-62.000000, 302.000000)">
                        <rect id="Rectangle-Copy-5" stroke="none" fill="#9D339D" fill-rule="evenodd" x="0" y="2" width="468" height="472"></rect>
                        <rect id="Rectangle" stroke="none" fill="#B73BB7" fill-rule="evenodd" x="50" y="2" width="418" height="72"></rect>
                        <path d="M470,74 L36,74" id="Path-5" stroke="#782378" stroke-width="3" fill="none"></path>
                        <path d="M470,146 L36,146" id="Path-5-Copy" stroke="#782378" stroke-width="3" fill="none"></path>
                        <path d="M470,218 L36,218" id="Path-5-Copy-2" stroke="#782378" stroke-width="3" fill="none"></path>
                        <path d="M470,290 L36,290" id="Path-5-Copy-3" stroke="#782378" stroke-width="3" fill="none"></path>
                        <path d="M470,354 L36,354" id="Path-5-Copy-4" stroke="#782378" stroke-width="3" fill="none"></path>
                        <path d="M470,426 L36,426" id="Path-5-Copy-5" stroke="#782378" stroke-width="3" fill="none"></path>
                        <path d="M280,0 L280,430" id="Path-6" stroke="#782378" stroke-width="3" fill="none"></path>
                        <path d="M92,0 L92,430" id="Path-6-Copy" stroke="#782378" stroke-width="3" fill="none"></path>
                    </g>
                </g>
                <rect id="Rectangle" stroke="#9D339D" stroke-width="3" mask="url(#mask-2)" x="865.5" y="609.5" width="119" height="61" rx="30.5"></rect>
                <circle id="Oval" fill="#9D339D" mask="url(#mask-2)" cx="954" cy="640" r="20"></circle>
                <rect id="Rectangle-Copy-4" stroke="#9D339D" stroke-width="3" mask="url(#mask-2)" x="865.5" y="713.5" width="119" height="61" rx="30.5"></rect>
                <circle id="Oval-Copy-7" fill="#9D339D" mask="url(#mask-2)" cx="896" cy="744" r="20"></circle>
                <g id="Group-19" mask="url(#mask-2)" stroke="#782378" stroke-width="4">
                    <g transform="translate(942.000000, 208.000000)">
                        <path d="M20,0 L0,20" id="Path"></path>
                        <path d="M20,0 L0,20" id="Path-Copy" transform="translate(10.000000, 10.000000) rotate(-270.000000) translate(-10.000000, -10.000000) "></path>
                    </g>
                </g>
                <polyline id="Path-3" stroke="#9D339D" stroke-width="3" mask="url(#mask-2)" points="1334 517 1348 531 1362 517"></polyline>
                <path d="M454,488 L987,488" id="Path-7" stroke="#782378" stroke-width="3" mask="url(#mask-2)"></path>
                <path d="M502,327.5 L938,327.5" id="Path-7-Copy-2" stroke="#782378" stroke-width="3" mask="url(#mask-2)"></path>
                <path d="M502,295.5 L938,295.5" id="Path-7-Copy-5" stroke="#782378" stroke-width="3" mask="url(#mask-2)"></path>
                <path d="M502,359.5 L938,359.5" id="Path-7-Copy-3" stroke="#782378" stroke-width="3" mask="url(#mask-2)"></path>
                <path d="M502,391.5 L768,391.5" id="Path-7-Copy-4" stroke="#782378" stroke-width="3" mask="url(#mask-2)"></path>
                <path d="M720.5,487 L720.5,563" id="Path-8" stroke="#782378" stroke-width="3" mask="url(#mask-2)"></path>
            </g>
        </g>
    </g>
</svg>