<?xml version="1.0" encoding="UTF-8"?>
<svg width="1440px" height="744px" viewBox="0 0 1440 744" version="1.1" xmlns="http://www.w3.org/2000/svg" xmlns:xlink="http://www.w3.org/1999/xlink">
    <!-- Generator: Sketch 52.5 (67469) - http://www.bohemiancoding.com/sketch -->
    <title>Group 15</title>
    <desc>Created with Sketch.</desc>
    <defs>
        <rect id="path-1" x="0" y="0" width="1440" height="744"></rect>
        <rect id="path-3" x="0" y="0" width="26" height="20" rx="10"></rect>
        <path d="M90,0 L90,0 C119.041247,-5.33479057e-15 144.013818,20.5708187 149.575518,49.0745296 L180,205 L0,205 L30.424482,49.0745296 C35.9861817,20.5708187 60.9587528,5.33479057e-15 90,0 Z" id="path-5"></path>
        <path d="M36,0 L36,0 C55.882251,-3.65231026e-15 72,16.117749 72,36 L72,96 C72,115.882251 55.882251,132 36,132 L36,132 C16.117749,132 -4.55790522e-14,115.882251 -5.68434189e-14,96 L-4.26325641e-14,36 C-4.50674376e-14,16.117749 16.117749,3.65231026e-15 36,0 Z" id="path-7"></path>
    </defs>
    <g id="Projects" stroke="none" stroke-width="1" fill="none" fill-rule="evenodd">
        <g id="Highlights" transform="translate(0.000000, -360.000000)">
            <g id="Group-15" transform="translate(0.000000, 360.000000)">
                <mask id="mask-2" fill="white">
                    <use xlink:href="#path-1"></use>
                </mask>
                <use id="Rectangle-3" fill="#D44640" xlink:href="#path-1"></use>
                <g id="Group-27" mask="url(#mask-2)">
                    <g transform="translate(73.000000, 78.000000)">
                        <polyline id="Path-21" stroke="#FF926B" stroke-width="3" transform="translate(222.217622, 260.426915) rotate(-300.000000) translate(-222.217622, -260.426915) " points="186.217622 284.926915 210.217622 284.926915 210.217622 259.926915 234.217622 259.926915 234.217622 235.926915 258.217622 235.926915"></polyline>
                        <polyline id="Path-21-Copy-5" stroke="#FF926B" stroke-width="3" transform="translate(51.526279, 501.856406) rotate(-330.000000) translate(-51.526279, -501.856406) " points="35.5262794 512.856406 46.1929461 512.856406 46.1929461 501.631917 56.8596128 501.631917 56.8596128 490.856406 67.5262794 490.856406"></polyline>
                        <polyline id="Path-21-Copy-6" stroke="#FF926B" stroke-width="3" transform="translate(303.766289, 29.301823) rotate(-285.000000) translate(-303.766289, -29.301823) " points="287.766289 40.3018227 298.432955 40.3018227 298.432955 29.0773329 309.099622 29.0773329 309.099622 18.3018227 319.766289 18.3018227"></polyline>
                        <polyline id="Path-21-Copy-7" stroke="#FF926B" stroke-width="3" transform="translate(1170.766289, 18.301823) rotate(-255.000000) translate(-1170.766289, -18.301823) " points="1154.76629 29.3018227 1165.43296 29.3018227 1165.43296 18.0773329 1176.09962 18.0773329 1176.09962 7.30182272 1186.76629 7.30182272"></polyline>
                        <polyline id="Path-21-Copy-9" stroke="#FF926B" stroke-width="3" transform="translate(792.766289, 62.301823) rotate(-300.000000) translate(-792.766289, -62.301823) " points="776.766289 73.3018227 787.432955 73.3018227 787.432955 62.0773329 798.099622 62.0773329 798.099622 51.3018227 808.766289 51.3018227"></polyline>
                        <polyline id="Path-21-Copy-8" stroke="#FF926B" stroke-width="3" transform="translate(1278.301823, 504.766289) rotate(-345.000000) translate(-1278.301823, -504.766289) " points="1262.30182 515.766289 1272.96849 515.766289 1272.96849 504.541799 1283.63516 504.541799 1283.63516 493.766289 1294.30182 493.766289"></polyline>
                        <polyline id="Path-21-Copy-4" stroke="#FF926B" stroke-width="3" points="-7.81597009e-14 154 24 154 24 129 48 129 48 105 72 105"></polyline>
                        <polyline id="Path-21-Copy" stroke="#FF926B" stroke-width="3" transform="translate(1019.114396, 175.982668) rotate(-195.000000) translate(-1019.114396, -175.982668) " points="983.114396 200.482668 1007.1144 200.482668 1007.1144 175.482668 1031.1144 175.482668 1031.1144 151.482668 1055.1144 151.482668"></polyline>
                        <polyline id="Path-21-Copy-2" stroke="#FF926B" stroke-width="3" transform="translate(536.779960, 97.779960) rotate(-225.000000) translate(-536.779960, -97.779960) " points="500.77996 122.27996 524.77996 122.27996 524.77996 97.2799603 548.77996 97.2799603 548.77996 73.2799603 572.77996 73.2799603"></polyline>
                        <polyline id="Path-21-Copy-3" stroke="#FF926B" stroke-width="3" transform="translate(1266.217622, 261.426915) rotate(-120.000000) translate(-1266.217622, -261.426915) " points="1230.21762 285.926915 1254.21762 285.926915 1254.21762 260.926915 1278.21762 260.926915 1278.21762 236.926915 1302.21762 236.926915"></polyline>
                        <path d="" id="Path-22" stroke="#979797" stroke-width="1"></path>
                    </g>
                </g>
                <g id="Group-19" mask="url(#mask-2)">
                    <g transform="translate(230.000000, 614.000000)">
                        <rect id="Rectangle" stroke="none" fill="#FF926B" fill-rule="evenodd" x="137" y="23" width="72" height="146"></rect>
                        <circle id="Oval-Copy-4" stroke="none" fill="#641916" fill-rule="evenodd" cx="149" cy="54" r="4"></circle>
                        <circle id="Oval-Copy-5" stroke="none" fill="#641916" fill-rule="evenodd" cx="197" cy="54" r="4"></circle>
                        <path d="M157,50 L189,50 L189,58 C189,62.418278 185.418278,66 181,66 L165,66 C160.581722,66 157,62.418278 157,58 L157,50 Z" id="Rectangle" stroke="none" fill="#FCCBBA" fill-rule="evenodd"></path>
                        <path d="M113,80 L209,80 L209,152 L41,152 L41,152 C41,112.235498 73.235498,80 113,80 Z" id="Rectangle-Copy-7" stroke="none" fill="#FF926B" fill-rule="evenodd"></path>
                        <polygon id="Path-7" stroke="none" fill="#FF926B" fill-rule="evenodd" points="137 40 137 0 166 29"></polygon>
                        <polygon id="Path-7-Copy" stroke="none" fill="#FF926B" fill-rule="evenodd" transform="translate(194.500000, 20.000000) scale(-1, 1) translate(-194.500000, -20.000000) " points="180 40 180 0 209 29"></polygon>
                        <polygon id="Path-8" stroke="none" fill="#641916" fill-rule="evenodd" points="166 50 172.847631 57 180 50"></polygon>
                        <path d="M45,132.132813 L45,91 C45,66.1471863 24.8528137,46 -8.26636589e-15,46" id="Path-10" stroke="#FF926B" stroke-width="8" fill="none"></path>
                    </g>
                </g>
                <g id="bird" mask="url(#mask-2)">
                    <g transform="translate(556.000000, 355.000000)">
                        <g id="Oval-2" stroke-width="1" fill="none" transform="translate(84.000000, 29.000000)">
                            <circle id="Oval" fill="#FFFFFF" cx="38" cy="17" r="17"></circle>
                            <circle id="Oval-Copy-6" stroke="#D44640" stroke-width="3" cx="17" cy="17" r="15.5"></circle>
                            <circle id="Oval-Copy-7" stroke="#D44640" stroke-width="3" cx="59" cy="17" r="15.5"></circle>
                        </g>
                        <path d="M51,-5.68434189e-14 L107,-5.68434189e-14 C124.120827,-5.99884638e-14 138,13.8791728 138,31 L51,31 L51,-5.68434189e-14 Z" id="Rectangle" fill="#FF926B"></path>
                        <path d="M51,32 L106,32 C110.418278,32 114,35.581722 114,40 L51,40 L51,32 Z" id="Rectangle-Copy-9" fill="#FF926B" transform="translate(82.500000, 36.000000) scale(1, -1) rotate(-45.000000) translate(-82.500000, -36.000000) "></path>
                        <path d="M42,41 L76,41 L76,82 C76,105.195959 57.1959595,124 34,124 L0,124 L0,83 C-2.84068575e-15,59.8040405 18.8040405,41 42,41 Z" id="Rectangle" fill="#3F0E0C"></path>
                        <circle id="Oval" fill="#3F0E0C" cx="51" cy="25" r="25"></circle>
                        <rect id="Rectangle" fill="#3F0E0C" x="51" y="0" width="25" height="51"></rect>
                        <circle id="Oval-Copy-4" fill="#FF926B" cx="51" cy="25" r="4"></circle>
                    </g>
                </g>
                <g id="bee" mask="url(#mask-2)">
                    <g transform="translate(771.000000, 303.000000)">
                        <circle id="Oval" fill="#641916" cx="6" cy="26" r="6"></circle>
                        <path d="M29,0 L29,0 C33.418278,-8.11624501e-16 37,3.581722 37,8 L37,8 C37,12.418278 33.418278,16 29,16 L21,16 L21,8 C21,3.581722 24.581722,8.11624501e-16 29,0 Z" id="Rectangle" fill="#FF926B"></path>
                        <g id="Group-22" stroke-width="1" fill="none" transform="translate(10.000000, 16.000000)">
                            <mask id="mask-4" fill="white">
                                <use xlink:href="#path-3"></use>
                            </mask>
                            <use id="Rectangle" fill="#FF926B" xlink:href="#path-3"></use>
                            <rect id="Rectangle-Copy-6" fill="#641916" mask="url(#mask-4)" x="15" y="0" width="6" height="20"></rect>
                            <rect id="Rectangle" fill="#641916" mask="url(#mask-4)" x="5" y="0" width="6" height="20"></rect>
                        </g>
                    </g>
                </g>
                <g id="bear" mask="url(#mask-2)">
                    <g transform="translate(975.000000, 428.000000)">
                        <path d="M121,7 L141,7 C167.509668,7 189,28.490332 189,55 L189,134 L73,134 L73,55 C73,28.490332 94.490332,7 121,7 Z" id="Rectangle" fill="#641916"></path>
                        <g id="Group-20" stroke-width="1" fill="none" transform="translate(55.000000, 62.000000)">
                            <path d="M-1.66977543e-13,0 L39,0 L39,36 L24,36 C10.745166,36 -1.65354294e-13,25.254834 -1.66977543e-13,12 L-1.66977543e-13,0 Z" id="Rectangle" fill="#FF926B"></path>
                            <polygon id="Path-5" fill="#641916" points="1.15463195e-14 11 11 1.24344979e-14 1.15463195e-14 1.24344979e-14"></polygon>
                        </g>
                        <circle id="Oval" fill="#FF926B" cx="120" cy="68" r="6"></circle>
                        <path d="M185,0 L185,0 C193.836556,-1.623249e-15 201,7.163444 201,16 L201,16 C201,24.836556 193.836556,32 185,32 L169,32 L169,16 C169,7.163444 176.163444,1.623249e-15 185,0 Z" id="Rectangle" fill="#641916"></path>
                        <g id="Group-21" stroke-width="1" fill="none" transform="translate(77.000000, 16.000000) scale(-1, 1) translate(-77.000000, -16.000000) translate(61.000000, 0.000000)">
                            <path d="M16,0 L16,0 C24.836556,-1.623249e-15 32,7.163444 32,16 L32,16 C32,24.836556 24.836556,32 16,32 L0,32 L0,16 C-1.082166e-15,7.163444 7.163444,1.623249e-15 16,0 Z" id="Rectangle-Copy-8" fill="#641916"></path>
                        </g>
                        <path d="M100,110 L162,110 C217.228475,110 262,154.771525 262,210 L262,470 L0,470 L0,210 C-6.76353751e-15,154.771525 44.771525,110 100,110 Z" id="Rectangle-Copy-5" fill="#641916"></path>
                        <g id="Group-25" stroke-width="1" fill="none" transform="translate(145.000000, 226.000000)">
                            <circle id="Oval" fill="#FF926B" cx="30" cy="27" r="27"></circle>
                            <g id="Group-24" transform="translate(0.000000, 39.000000)" fill="#FF926B">
                                <circle id="Oval" cx="9" cy="9" r="9"></circle>
                                <circle id="Oval-Copy" cx="23" cy="9" r="9"></circle>
                                <circle id="Oval-Copy-2" cx="37" cy="9" r="9"></circle>
                                <circle id="Oval-Copy-3" cx="51" cy="9" r="9"></circle>
                            </g>
                            <polyline id="Path-6" stroke="#FF926B" stroke-width="3" points="9 50 29.5 114 50 50"></polyline>
                        </g>
                    </g>
                </g>
                <g id="Group-17" mask="url(#mask-2)">
                    <g transform="translate(738.000000, 355.000000)" id="Group-10">
                        <g transform="translate(-0.000000, -0.000000)">
                            <g id="Rectangle-4" transform="translate(82.000000, 0.000000)">
                                <mask id="mask-6" fill="white">
                                    <use xlink:href="#path-5"></use>
                                </mask>
                                <use id="Rectangle" fill="#3F0E0C" xlink:href="#path-5"></use>
                                <path d="M113.009155,38 L122.009155,29" id="Path-3" stroke="#FF926B" stroke-width="3" mask="url(#mask-6)"></path>
                                <path d="M118.009155,43 L127.009155,34" id="Path-3-Copy" stroke="#FF926B" stroke-width="3" mask="url(#mask-6)"></path>
                            </g>
                            <path d="M164,33 L164,33 C183.882251,33 200,49.117749 200,69 L200,185 L128,185 L128,69 C128,49.117749 144.117749,33 164,33 Z" id="Rectangle" fill="#641916"></path>
                            <polyline id="Path-9" stroke="#FF926B" stroke-width="3" points="152 62 142 87 155 87"></polyline>
                            <path d="M123,135 L227,135 C253.509668,135 275,156.490332 275,183 L275,360 L75,360 L75,183 C75,156.490332 96.490332,135 123,135 Z" id="Rectangle" fill="#FF926B"></path>
                            <circle id="Oval" fill="#641916" cx="164" cy="135" r="36"></circle>
                            <rect id="Rectangle" fill="#3F0E0C" x="91" y="360" width="176" height="29"></rect>
                            <rect id="Rectangle" fill="#FFFFFF" x="16" y="217" width="166" height="124" rx="12"></rect>
                            <path d="M142,269 L198,269 L198,309 L182,309 C159.90861,309 142,291.09139 142,269 Z" id="Rectangle" fill="#641916"></path>
                            <path d="M0,269 L56,269 L56,309 L40,309 C17.90861,309 2.705415e-15,291.09139 0,269 Z" id="Rectangle-Copy" fill="#641916" transform="translate(28.000000, 289.000000) scale(-1, 1) translate(-28.000000, -289.000000) "></path>
                            <polyline id="Path-2" stroke="#641916" stroke-width="3" points="177 270.5 229 270.5 229 176"></polyline>
                        </g>
                    </g>
                </g>
                <g id="Group-17-Copy" mask="url(#mask-2)">
                    <g transform="translate(572.500000, 556.500000) scale(-1, 1) translate(-572.500000, -556.500000) translate(439.000000, 369.000000)" id="Group-10">
                        <g transform="translate(-0.000000, -0.000000)">
                            <rect id="Rectangle-Copy-3" fill="#3F0E0C" x="91" y="313" width="176" height="62"></rect>
                            <path d="M131,97 L219,97 C245.509668,97 267,118.490332 267,145 L267,330 L83,330 L83,145 C83,118.490332 104.490332,97 131,97 Z" id="Rectangle" fill="#641916"></path>
                            <g id="Group-18" transform="translate(110.000000, 0.000000)">
                                <g id="Group-14" transform="translate(18.000000, 0.000000)">
                                    <mask id="mask-8" fill="white">
                                        <use xlink:href="#path-7"></use>
                                    </mask>
                                    <use id="Rectangle" fill="#FF926B" xlink:href="#path-7"></use>
                                    <path d="M21,76 L17,76 C13.6862915,76 11,73.3137085 11,70 C11,66.6862915 13.6862915,64 17,64 L21,64" id="Path" stroke="#641916" stroke-width="3" mask="url(#mask-8)"></path>
                                    <path d="M8,14 L80,14 L80,54 L48,54 C25.90861,54 8,36.09139 8,14 Z" id="Rectangle" fill="#641916" mask="url(#mask-8)"></path>
                                    <rect id="Rectangle" fill="#641916" mask="url(#mask-8)" x="62" y="40" width="10" height="26"></rect>
                                    <path d="M0,14 L18,14 L18,54 L18,54 C8.0588745,54 1.21743675e-15,45.9411255 0,36 L0,14 Z" id="Rectangle-Copy-4" fill="#641916" mask="url(#mask-8)"></path>
                                    <rect id="Rectangle" fill="#FFFFFF" mask="url(#mask-8)" x="0" y="0" width="72" height="35"></rect>
                                </g>
                                <path d="M75,33.5 L2.18278728e-11,33.5" id="Path-4" stroke="#FFFFFF" stroke-width="3"></path>
                            </g>
                            <rect id="Rectangle" fill="#FCCBBA" x="16" y="171" width="166" height="124"></rect>
                            <rect id="Rectangle-Copy-2" fill="#FFFFFF" x="16" y="171" width="83" height="124"></rect>
                            <path d="M134,231 L220,231 L220,271 L174,271 C151.90861,271 134,253.09139 134,231 Z" id="Rectangle" fill="#FF926B"></path>
                            <path d="M220,201 L260,201 L260,231 C260,253.09139 242.09139,271 220,271 L220,201 Z" id="Rectangle" fill="#FF926B"></path>
                            <path d="M0,231 L56,231 L56,271 L40,271 C17.90861,271 2.705415e-15,253.09139 0,231 Z" id="Rectangle-Copy" fill="#FF926B" transform="translate(28.000000, 251.000000) scale(-1, 1) translate(-28.000000, -251.000000) "></path>
                            <polyline id="Path-2" stroke="#FF926B" stroke-width="3" points="169 232.5 221 232.5 221 138"></polyline>
                        </g>
                    </g>
                </g>
            </g>
        </g>
    </g>
</svg>