<?xml version="1.0" encoding="UTF-8"?>
<svg width="24px" height="24px" viewBox="0 0 24 24" version="1.1" xmlns="http://www.w3.org/2000/svg" xmlns:xlink="http://www.w3.org/1999/xlink">
    <!-- Generator: Sketch 52.5 (67469) - http://www.bohemiancoding.com/sketch -->
    <title>Fill 33</title>
    <desc>Created with Sketch.</desc>
    <g id="Homepage" stroke="none" stroke-width="1" fill="none" fill-rule="evenodd">
        <g transform="translate(-1265.000000, -48.000000)" fill="#4A4A4A" id="Group-2">
            <g>
                <g id="Group-3" transform="translate(856.000000, 44.000000)">
                    <g id="Group-10" transform="translate(353.000000, 4.000000)">
                        <path d="M76.45175,20.45025 L72.89225,20.45025 L72.89225,14.88075 C72.89225,13.5525 72.86975,11.844 71.04275,11.844 C69.191,11.844 68.90825,13.2915 68.90825,14.7855 L68.90825,20.45025 L65.3525,20.45025 L65.3525,8.997 L68.765,8.997 L68.765,10.563 L68.81375,10.563 C69.2885,9.66225 70.4495,8.71275 72.18125,8.71275 C75.78575,8.71275 76.45175,11.08425 76.45175,14.169 L76.45175,20.45025 Z M61.33925,7.4325 C60.1955,7.4325 59.27375,6.50775 59.27375,5.36775 C59.27375,4.2285 60.1955,3.30375 61.33925,3.30375 C62.47775,3.30375 63.4025,4.2285 63.4025,5.36775 C63.4025,6.50775 62.47775,7.4325 61.33925,7.4325 L61.33925,7.4325 Z M63.11975,20.45025 L59.5565,20.45025 L59.5565,8.997 L63.11975,8.997 L63.11975,20.45025 Z M79.00025,0 L57.0005,0 C56.44775,0 56,0.44775 56,0.99975 L56,22.9995 C56,23.55225 56.44775,24 57.0005,24 L79.00025,24 C79.55225,24 80,23.55225 80,22.9995 L80,0.99975 C80,0.44775 79.55225,0 79.00025,0 L79.00025,0 Z" id="Fill-33"></path>
                    </g>
                </g>
            </g>
        </g>
    </g>
</svg>