<?xml version="1.0" encoding="UTF-8"?>
<svg width="24px" height="24px" viewBox="0 0 24 24" version="1.1" xmlns="http://www.w3.org/2000/svg" xmlns:xlink="http://www.w3.org/1999/xlink">
    <!-- Generator: Sketch 52.5 (67469) - http://www.bohemiancoding.com/sketch -->
    <title>Fill 9</title>
    <desc>Created with Sketch.</desc>
    <g id="Homepage" stroke="none" stroke-width="1" fill="none" fill-rule="evenodd">
        <g transform="translate(-1209.000000, -48.000000)" fill="#4A4A4A" id="Group-2">
            <g>
                <g id="Group-3" transform="translate(856.000000, 44.000000)">
                    <g id="Group-10" transform="translate(353.000000, 4.000000)">
                        <path d="M19.93425,5.5335 C19.71825,5.826 18.00075,8.028 14.211,9.57525 C14.4495,10.06275 14.67825,10.56 14.8905,11.0595 C14.96625,11.2365 15.03975,11.41275 15.11175,11.58825 C18.522,11.16 21.91125,11.847 22.24875,11.91825 C22.22625,9.4995 21.3615,7.278 19.93425,5.5335 M9.5985,2.0505 C9.88125,2.43 11.7435,4.965 13.42275,8.0505 C17.06775,6.68475 18.6105,4.611 18.795,4.3485 C16.9845,2.742 14.60475,1.7655 12,1.7655 C11.1735,1.7655 10.36875,1.8645 9.5985,2.0505 M1.96725,9.91575 C2.4255,9.92175 6.648,9.9405 11.44275,8.667 C9.74475,5.64825 7.9125,3.1095 7.6425,2.739 C4.77525,4.092 2.63175,6.735 1.96725,9.91575 M4.38525,18.8685 C4.61775,18.471 7.43025,13.8135 12.717,12.105 C12.8505,12.0615 12.9855,12.021 13.1205,11.98275 C12.86325,11.40075 12.5835,10.818 12.2895,10.2435 C7.17075,11.775 2.20425,11.71125 1.75575,11.70225 C1.75275,11.8065 1.7505,11.91075 1.7505,12.015 C1.7505,14.6475 2.748,17.05125 4.38525,18.8685 M16.00425,21.45075 C15.85125,20.5515 15.2565,17.41725 13.81725,13.67775 C13.79475,13.68525 13.77225,13.69275 13.74975,13.70025 C7.96875,15.71475 5.8935,19.72425 5.709,20.1015 C7.44675,21.45675 9.63075,22.26525 12,22.26525 C13.41975,22.26525 14.7735,21.975 16.00425,21.45075 M22.1205,13.6425 C21.7695,13.5315 18.948,12.69 15.73575,13.20375 C17.07675,16.88775 17.622,19.8885 17.727,20.51175 C20.0265,18.957 21.66375,16.494 22.1205,13.6425 M12,24 C5.3835,24 0,18.6165 0,12 C0,5.38275 5.3835,0 12,0 C18.61725,0 24,5.38275 24,12 C24,18.6165 18.61725,24 12,24" id="Fill-9"></path>
                    </g>
                </g>
            </g>
        </g>
    </g>
</svg>